<?xml version="1.0" encoding="utf-8"?>
<!-- Generator: Adobe Illustrator 15.1.0, SVG Export Plug-In . SVG Version: 6.00 Build 0)  -->
<!DOCTYPE svg PUBLIC "-//W3C//DTD SVG 1.1//EN" "http://www.w3.org/Graphics/SVG/1.1/DTD/svg11.dtd">
<svg version="1.1" id="Calque_1" xmlns="http://www.w3.org/2000/svg" xmlns:xlink="http://www.w3.org/1999/xlink" x="0px" y="0px"
	 width="37px" height="37px" viewBox="0 0 37 37" enable-background="new 0 0 37 37" xml:space="preserve">
<path id="Mask" fill="#F2F2F2" d="M4.758,7.495h27.614c0.994,0,1.801,0.806,1.801,1.8v17.723c0,0.994-0.807,1.799-1.801,1.799H4.758
	c-0.994,0-1.8-0.805-1.8-1.799V9.295C2.958,8.301,3.764,7.495,4.758,7.495z"/>
<path opacity="0.2297" fill="#D8D8D8" enable-background="new    " d="M2.495,26.474c3.017-2.206,5.748-3.803,8.194-4.79
	c3.669-1.482,9.146,2.352,12.075,0c1.954-1.568,5.71-5.799,11.269-12.694l0.787,20.639c-21.219,0.671-31.829,0.671-31.829,0
	S2.825,27.906,2.495,26.474z"/>
<path id="Path-6" fill="#D8D8D8" d="M2.182,7.495"/>
<polygon id="Path-8" fill="#E0108A" points="26.192,27.328 26.192,33.532 27.909,32.891 27.909,27.328 "/>
<polygon id="Path-8-Copy" fill="#9B0B5F" points="29.558,27.328 29.558,33.532 27.842,32.891 27.842,27.328 "/>
<path id="Combined-Shape" fill="#EFB264" d="M27.919,20.222l0.773,0.581h1.203c0.138,0.377,0.307,0.679,0.508,0.904
	c0.199,0.227,0.531,0.38,0.992,0.462v1.059l0.518,0.932l-0.518,0.961v1.294c-0.516,0.114-0.846,0.285-0.992,0.514
	s-0.313,0.527-0.497,0.895h-0.999l-0.988,0.643v0.013l-0.01-0.007l-0.01,0.007v-0.013l-0.988-0.643h-0.999
	c-0.185-0.367-0.35-0.666-0.497-0.895c-0.146-0.229-0.477-0.399-0.992-0.514V25.12l-0.518-0.961l0.518-0.932v-1.059
	c0.461-0.082,0.793-0.235,0.992-0.462c0.201-0.226,0.37-0.527,0.508-0.904h1.204l0.772-0.581v-0.016l0.01,0.008l0.01-0.008V20.222z"
	/>
<path id="Combined-Shape_1_" fill="#F5C68B" d="M27.917,21.223l0.585,0.439h0.911c0.104,0.285,0.232,0.514,0.385,0.685
	c0.151,0.171,0.402,0.288,0.752,0.35v0.802l0.392,0.705l-0.392,0.729v0.98c-0.391,0.086-0.642,0.215-0.752,0.388
	c-0.111,0.173-0.236,0.399-0.377,0.679h-0.756l-0.748,0.484v0.011l-0.008-0.005l-0.008,0.005v-0.011l-0.748-0.484h-0.756
	c-0.141-0.279-0.266-0.506-0.377-0.679c-0.11-0.173-0.361-0.302-0.752-0.388v-0.98l-0.392-0.729l0.392-0.705v-0.802
	c0.35-0.062,0.602-0.179,0.752-0.35c0.152-0.171,0.28-0.399,0.385-0.685h0.912l0.584-0.439v-0.012l0.008,0.006l0.008-0.006V21.223z"
	/>
<path id="Rectangle-15" fill="#686767" d="M5.319,11.595h24.645c0.17,0,0.307,0.138,0.307,0.308s-0.137,0.308-0.307,0.308H5.319
	c-0.17,0-0.308-0.138-0.308-0.308S5.149,11.595,5.319,11.595z"/>
<path id="Rectangle-15-Copy" fill="#686767" d="M5.319,14.671h17.662c0.17,0,0.307,0.138,0.307,0.307
	c0,0.17-0.137,0.308-0.307,0.308H5.319c-0.17,0-0.308-0.138-0.308-0.308C5.012,14.809,5.149,14.671,5.319,14.671z"/>
<path id="Rectangle-15-Copy-2" fill="#686767" d="M5.319,17.746h22.18c0.17,0,0.308,0.138,0.308,0.307
	c0,0.17-0.138,0.309-0.308,0.309H5.319c-0.17,0-0.308-0.139-0.308-0.309C5.012,17.884,5.149,17.746,5.319,17.746z"/>
<path id="Rectangle-15-Copy-4" fill="#686767" d="M5.319,20.616h10.885c0.169,0,0.307,0.138,0.307,0.308s-0.138,0.308-0.307,0.308
	H5.319c-0.17,0-0.308-0.138-0.308-0.308S5.149,20.616,5.319,20.616z"/>
<path id="Rectangle-15-Copy-5" fill="#686767" d="M5.319,23.691h10.885c0.169,0,0.307,0.138,0.307,0.308s-0.138,0.308-0.307,0.308
	H5.319c-0.17,0-0.308-0.138-0.308-0.308S5.149,23.691,5.319,23.691z"/>
</svg>
