<?xml version="1.0" encoding="utf-8"?>
<!-- Generator: Adobe Illustrator 15.1.0, SVG Export Plug-In . SVG Version: 6.00 Build 0)  -->
<!DOCTYPE svg PUBLIC "-//W3C//DTD SVG 1.1//EN" "http://www.w3.org/Graphics/SVG/1.1/DTD/svg11.dtd">
<svg version="1.1" id="Calque_1" xmlns="http://www.w3.org/2000/svg" xmlns:xlink="http://www.w3.org/1999/xlink" x="0px" y="0px"
	 width="40px" height="34px" viewBox="0 0 40 34" enable-background="new 0 0 40 34" xml:space="preserve">
<path id="Fill-1" fill="#AA7850" d="M33.567,28.791H7.405V6.569c0-0.261,0.217-0.473,0.484-0.473h25.194
	c0.268,0,0.484,0.212,0.484,0.473V28.791"/>
<path id="Fill-2" opacity="0.3343" fill="#3F3F3F" enable-background="new    " d="M33.567,12.353
	c-0.099,0.024-0.201,0.041-0.308,0.041c-0.706,0-1.277-0.562-1.277-1.254c0,0.693-0.572,1.254-1.277,1.254
	c-0.706,0-1.277-0.562-1.277-1.254c0,0.693-0.572,1.254-1.277,1.254c-0.706,0-1.277-0.562-1.277-1.254
	c0,0.693-0.572,1.254-1.277,1.254s-1.277-0.562-1.277-1.254c0,0.693-0.572,1.254-1.277,1.254s-1.277-0.562-1.277-1.254
	c0,0.693-0.572,1.254-1.277,1.254s-1.277-0.562-1.277-1.254c0,0.693-0.572,1.254-1.277,1.254c-0.706,0-1.277-0.562-1.277-1.254
	c0,0.693-0.572,1.254-1.277,1.254S14.1,11.833,14.1,11.14c0,0.693-0.572,1.254-1.277,1.254s-1.277-0.562-1.277-1.254
	c0,0.693-0.572,1.254-1.277,1.254S8.99,11.833,8.99,11.14c0,0.693-0.572,1.254-1.277,1.254c-0.107,0-0.209-0.017-0.308-0.041v0.962
	c0.102,0.014,0.203,0.03,0.308,0.03c0.474,0,0.915-0.145,1.277-0.393c0.363,0.248,0.803,0.393,1.278,0.393
	c0.474,0,0.914-0.145,1.277-0.393c0.363,0.248,0.803,0.393,1.277,0.393s0.915-0.145,1.277-0.393
	c0.363,0.248,0.803,0.393,1.277,0.393s0.915-0.145,1.277-0.393c0.363,0.248,0.803,0.393,1.277,0.393s0.915-0.145,1.277-0.393
	c0.363,0.248,0.803,0.393,1.277,0.393s0.914-0.145,1.277-0.393c0.363,0.248,0.803,0.393,1.277,0.393s0.914-0.145,1.277-0.393
	c0.363,0.248,0.803,0.393,1.277,0.393c0.474,0,0.914-0.145,1.277-0.393c0.363,0.248,0.803,0.393,1.277,0.393
	c0.474,0,0.914-0.145,1.277-0.393c0.362,0.248,0.803,0.393,1.277,0.393c0.474,0,0.914-0.145,1.277-0.393
	c0.362,0.248,0.803,0.393,1.277,0.393c0.105,0,0.206-0.017,0.308-0.03V12.353L33.567,12.353"/>
<polygon id="Fill-3" fill="#B5DDEB" points="9.611,24.063 23.48,24.063 23.48,15.237 9.611,15.237 "/>
<polygon id="Fill-4" opacity="0.5" fill="#DAEFF5" enable-background="new    " points="23.17,23.434 20.283,23.434 14.339,15.553 
	23.026,15.553 "/>
<path id="Fill-5" fill="#C25054" d="M18.122,12.716L18.122,12.716c-0.696,0-1.261-0.521-1.261-1.164v-1.043h2.521v1.043
	C19.383,12.195,18.818,12.716,18.122,12.716"/>
<path id="Fill-6" fill="#C25054" d="M23.166,12.716L23.166,12.716c-0.697,0-1.262-0.521-1.262-1.164v-1.043h2.521v1.043
	C24.426,12.195,23.861,12.716,23.166,12.716"/>
<g id="Group-10" transform="translate(0.000000, 4.413013)">
	<polygon id="Clip-8" fill="none" points="6.462,6.127 14.319,6.127 14.319,8.601 6.462,8.601 	"/>
	<path id="Fill-7" fill="#C25054" d="M13.08,8.601L13.08,8.601c-0.723,0-1.31-0.584-1.31-1.304V6.127h2.62v1.169
		C14.39,8.017,13.803,8.601,13.08,8.601"/>
	<path id="Fill-9" fill="#C25054" d="M7.769,8.601L7.769,8.601c-0.724,0-1.31-0.584-1.31-1.304V6.127h2.62v1.169
		C9.079,8.017,8.493,8.601,7.769,8.601"/>
</g>
<path id="Fill-11" fill="#C25054" d="M28.209,12.716L28.209,12.716c-0.696,0-1.261-0.521-1.261-1.164v-1.043h2.521v1.043
	C29.47,12.195,28.905,12.716,28.209,12.716"/>
<path id="Fill-12" fill="#C3CAD7" d="M15.285,12.716L15.285,12.716c-0.696,0-1.261-0.521-1.261-1.164v-1.043h2.521v1.043
	C16.546,12.195,15.981,12.716,15.285,12.716"/>
<path id="Fill-13" fill="#C3CAD7" d="M25.688,12.716L25.688,12.716c-0.697,0-1.262-0.521-1.262-1.164v-1.043h2.522v1.043
	C26.948,12.195,26.384,12.716,25.688,12.716"/>
<path id="Fill-14" fill="#C25054" d="M33.567,12.716L33.567,12.716c-0.696,0-1.261-0.521-1.261-1.164v-1.043h2.521v1.043
	C34.828,12.195,34.264,12.716,33.567,12.716"/>
<path id="Fill-15" fill="#C3CAD7" d="M31.046,12.716L31.046,12.716c-0.696,0-1.261-0.521-1.261-1.164v-1.043h2.521v1.043
	C32.307,12.195,31.742,12.716,31.046,12.716"/>
<path id="Fill-16" fill="#C3CAD7" d="M10.242,12.716L10.242,12.716c-0.696,0-1.261-0.521-1.261-1.164v-1.043h2.521v1.043
	C11.502,12.195,10.938,12.716,10.242,12.716"/>
<path id="Fill-17" fill="#C3CAD7" d="M20.644,12.716L20.644,12.716c-0.696,0-1.261-0.521-1.261-1.164v-1.043h2.521v1.043
	C21.904,12.195,21.34,12.716,20.644,12.716"/>
<polyline id="Fill-18" fill="#E15E5F" points="19.288,10.824 16.546,10.824 16.83,6.727 19.383,6.727 19.288,10.824 "/>
<polyline id="Fill-19" fill="#E15E5F" points="24.742,10.824 22,10.824 21.904,6.727 24.458,6.727 24.742,10.824 "/>
<polyline id="Fill-20" fill="#E15E5F" points="13.922,10.509 11.502,10.509 12.086,6.727 14.339,6.727 13.922,10.509 "/>
<polyline id="Fill-22" fill="#E15E5F" points="9.105,10.509 6.459,10.509 7.463,6.727 9.926,6.727 9.105,10.509 "/>
<polyline id="Fill-24" fill="#E15E5F" points="29.785,10.824 27.096,10.824 26.633,6.727 29.137,6.727 29.785,10.824 "/>
<polyline id="Fill-25" fill="#F2F4F7" points="16.595,10.824 14.024,10.824 14.467,6.727 16.861,6.727 16.595,10.824 "/>
<polyline id="Fill-26" fill="#F2F4F7" points="26.948,10.824 24.377,10.824 24.111,6.727 26.505,6.727 26.948,10.824 "/>
<polyline id="Fill-27" fill="#E15E5F" points="34.828,10.824 32.182,10.824 31.361,6.727 33.824,6.727 34.828,10.824 "/>
<polyline id="Fill-28" fill="#F2F4F7" points="31.992,10.824 29.452,10.824 28.84,6.727 31.203,6.727 31.992,10.824 "/>
<polyline id="Fill-29" fill="#F2F4F7" points="11.52,10.824 8.981,10.824 9.769,6.727 12.133,6.727 11.52,10.824 "/>
<polygon id="Fill-30" fill="#F2F4F7" points="19.383,10.509 19.47,6.727 21.818,6.727 21.904,10.509 "/>
<path id="Fill-34" fill="#A9B0C1" d="M7.089,28.161h26.793c0-0.522-0.424-0.946-0.945-0.946H8.035
	C7.513,27.215,7.089,27.639,7.089,28.161L7.089,28.161z"/>
<polygon id="Fill-35" opacity="0.4601" fill="#E0A46B" enable-background="new    " points="7.405,27.215 33.567,27.215 
	33.567,25.324 7.405,25.324 "/>
<path id="Fill-36" fill="#555761" d="M23.617,14.607H9.79c-0.273,0-0.494,0.219-0.494,0.488v8.795c0,0.27,0.221,0.488,0.494,0.488
	h13.827c0.273,0,0.494-0.219,0.494-0.488v-8.795C24.111,14.826,23.891,14.607,23.617,14.607z M10.284,23.401h12.839v-7.817H10.284
	V23.401z"/>
<path id="Fill-37" fill="#555761" d="M31.492,14.607h-4.99c-0.275,0-0.5,0.217-0.5,0.484v12.123h5.99V15.092
	C31.992,14.824,31.768,14.607,31.492,14.607"/>
<polygon id="Fill-38" fill="#B5DDEB" points="26.948,23.434 31.046,23.434 31.046,15.553 26.948,15.553 "/>
<polyline id="Fill-44" fill="#B5DDEB" points="28.523,16.498 27.849,15.553 26.948,15.553 27.623,16.498 28.523,16.498 "/>
<polygon id="Fill-46" opacity="0.3937" fill="#DAEFF5" enable-background="new    " points="31.086,15.553 26.948,15.553 
	31.046,20.911 31.046,19.572 "/>
<path id="Rectangle-19" fill="#3F3F3F" d="M8.351,5.781h24.587c0.521,0,0.945,0.424,0.945,0.946l0,0H7.405
	C7.405,6.205,7.828,5.781,8.351,5.781z"/>
<path id="Rectangle-13" fill="#3F3F3F" d="M5.698,28.161H35.59c0.275,0,0.5,0.224,0.5,0.5l0,0c0,0.276-0.225,0.5-0.5,0.5H5.698
	c-0.276,0-0.5-0.224-0.5-0.5l0,0C5.198,28.385,5.422,28.161,5.698,28.161z"/>
</svg>
