<?xml version="1.0" encoding="UTF-8"?>
<svg width="32px" height="18px" viewBox="0 0 32 18" version="1.1" xmlns="http://www.w3.org/2000/svg" xmlns:xlink="http://www.w3.org/1999/xlink">
    <!-- Generator: sketchtool 55.1 (78136) - https://sketchapp.com -->
    <title>E01ADB96-84E8-4F72-B693-EA4C5B362193</title>
    <desc>Created with sketchtool.</desc>
    <g id="JRE" stroke="none" stroke-width="1" fill="none" fill-rule="evenodd">
        <g id="1.-Mes-démarches" transform="translate(-64.000000, -1584.000000)">
            <g id="Content" transform="translate(27.000000, 717.000000)">
                <g id="Card-Late-|-Past" transform="translate(24.000000, 806.000000)">
                    <g id="Card-Entretiens-Copy">
                        <g id="Card">
                            <g id="ico-autres" transform="translate(12.000000, 60.000000)">
                                <g id="chatting" transform="translate(1.073342, 1.039190)">
                                    <path d="M15.4903153,1.93201531 L29.3949545,1.93201531 C30.6695672,1.93201531 31.7123724,2.99012229 31.7123724,4.28329017 L31.7123724,12.5128188 C31.7123724,13.8060533 30.6695015,14.8640937 29.3949545,14.8640937 L21.8632475,14.8640937 L21.8632475,17.0936429 C21.8632475,17.3555394 21.5511738,17.4865875 21.3687863,17.3014687 L18.9664422,14.8641603 L15.4902496,14.8641603 C14.2156369,14.8641603 13.1728316,13.8060533 13.1728316,12.5128854 L13.1728316,4.28335676 C13.1728316,2.99012229 14.2157025,1.93201531 15.4903153,1.93201531 Z" id="Path" fill="#C7CFE2"></path>
                                    <path d="M29.1480486,6.56889144 L20.2819284,6.56889144 L20.2819284,5.40968882 L25.0012153,5.40968882 C25.3167024,5.40968882 25.5920574,5.1767321 25.6125261,4.86879326 C25.634874,4.53124238 25.361935,4.2504862 25.0213485,4.2504862 L20.2819284,4.2504862 L20.2819284,1.93201531 L19.0970901,1.93201531 C19.0970901,1.93201531 19.0970901,9.56088827 19.0970901,10.0464993 C19.0970901,11.321655 18.0307021,12.3649045 16.7274135,12.3649045 L13.1728316,12.3649045 C13.1728316,12.7885338 13.2989996,13.1814349 13.5040226,13.5241071 L16.7274135,13.5241071 C18.6873797,13.5241071 20.2819955,11.9639931 20.2819955,10.0464336 L22.6333508,10.0464336 C22.9302482,10.0464336 23.1955366,9.84039694 23.2378163,9.55281226 C23.2903639,9.19451327 23.0080966,8.88723101 22.651672,8.88723101 L20.2819955,8.88723101 L20.2819955,7.7280284 L29.1683831,7.7280284 C29.5089696,7.7280284 29.7819086,7.44733787 29.7595607,7.10972134 C29.7390249,6.80184816 29.4636028,6.56889144 29.1480486,6.56889144 Z" id="Path" fill="#AFB9D2"></path>
                                    <g id="Group" transform="translate(23.906250, 4.347034)" fill="#959CB3">
                                        <path d="M4.71786742,1.19020826 L2.96321854,1.19020826 C2.63995713,1.19020826 2.37831349,0.932772648 2.37831349,0.615292605 C2.37831349,0.297812562 2.63989087,0.0403769491 2.96321854,0.0403769491 L4.71786742,0.0403769491 C5.04112883,0.0403769491 5.30277246,0.297812562 5.30277246,0.615292605 C5.30277246,0.932772648 5.04119508,1.19020826 4.71786742,1.19020826 Z" id="Path"></path>
                                        <path d="M4.71786742,5.78933813 L0.623730867,5.78933813 C0.300469459,5.78933813 0.038825822,5.53190252 0.038825822,5.21442248 C0.038825822,4.89694244 0.300403203,4.63950682 0.623730867,4.63950682 L4.71786742,4.63950682 C5.04112883,4.63950682 5.30277246,4.89694244 5.30277246,5.21442248 C5.30277246,5.53190252 5.04119508,5.78933813 4.71786742,5.78933813 Z" id="Path"></path>
                                    </g>
                                    <path d="M28.6935739,12.5580995 L20.582574,12.5580995 C20.2623633,12.5580995 20.0031888,12.3418201 20.0031888,12.0750957 C20.0031888,11.8083712 20.2622976,11.5920918 20.582574,11.5920918 L28.6935739,11.5920918 C29.0137847,11.5920918 29.2729592,11.8083712 29.2729592,12.0750957 C29.2729592,12.3418201 29.0138503,12.5580995 28.6935739,12.5580995 Z" id="Path" fill="#AFB9D2"></path>
                                    <path d="M16.2220572,0 L2.31741799,0 C1.04280528,0 0,1.05810699 0,2.35127487 L0,10.5808035 C0,11.874038 1.04287091,12.9320784 2.31741799,12.9320784 L9.84912491,12.9320784 L9.84912491,15.1616276 C9.84912491,15.4235241 10.1611986,15.5545722 10.3435862,15.3694534 L12.7459302,12.9321449 L16.2221228,12.9321449 C17.4967355,12.9321449 18.5395408,11.874038 18.5395408,10.5808701 L18.5395408,2.35127487 C18.5395408,1.05810699 17.4966699,0 16.2220572,0 Z" id="Path" fill="#E4EAF6"></path>
                                    <path d="M4.29328776,3.38102679 L2.53700306,3.38102679 C2.21342806,3.38102679 1.95153061,3.16474743 1.95153061,2.89802296 C1.95153061,2.63129849 2.21336174,2.41501913 2.53700306,2.41501913 L4.29335408,2.41501913 C4.61692908,2.41501913 4.87882653,2.63129849 4.87882653,2.89802296 C4.87882653,3.16474743 4.61692908,3.38102679 4.29328776,3.38102679 Z" id="Path" fill="#AFB9D2"></path>
                                    <g id="Group" transform="translate(2.439413, 1.932015)" fill="#C7CFE2">
                                        <path d="M13.5508353,1.12488013 L4.75519065,1.12488013 C4.43110143,1.12488013 4.16878777,0.877376451 4.16878777,0.572144866 C4.16878777,0.266913281 4.431035,0.0194095982 4.75519065,0.0194095982 L13.5508353,0.0194095982 C13.8749245,0.0194095982 14.1372382,0.266913281 14.1372382,0.572144866 C14.1372382,0.877376451 13.8749245,1.12488013 13.5508353,1.12488013 Z" id="Path"></path>
                                        <path d="M13.5508353,3.33569598 L0.650569758,3.33569598 C0.326480535,3.33569598 0.0641668763,3.0881923 0.0641668763,2.78296071 C0.0641668763,2.47772913 0.32641411,2.23022545 0.650569758,2.23022545 L13.5508353,2.23022545 C13.8749245,2.23022545 14.1372382,2.47772913 14.1372382,2.78296071 C14.1372382,3.0881923 13.8749245,3.33569598 13.5508353,3.33569598 Z" id="Path"></path>
                                    </g>
                                    <path d="M16.0025378,8.21106505 L14.2461867,8.21106505 C13.9226117,8.21106505 13.6607143,7.9947857 13.6607143,7.72806122 C13.6607143,7.46133675 13.9225454,7.2450574 14.2461867,7.2450574 L16.0025378,7.2450574 C16.3261128,7.2450574 16.5880102,7.46133675 16.5880102,7.72806122 C16.5879439,7.99484041 16.3261128,8.21106505 16.0025378,8.21106505 Z" id="Path" fill="#AFB9D2"></path>
                                    <g id="Group" transform="translate(2.439413, 6.762054)" fill="#C7CFE2">
                                        <path d="M9.446148,1.16369933 L0.650569758,1.16369933 C0.326480535,1.16369933 0.0641668763,0.916195647 0.0641668763,0.610964062 C0.0641668763,0.305732478 0.32641411,0.0582287946 0.650569758,0.0582287946 L9.44621443,0.0582287946 C9.77030365,0.0582287946 10.0326173,0.305732478 10.0326173,0.610964062 C10.0326173,0.916258259 9.77030365,1.16369933 9.446148,1.16369933 Z" id="Path"></path>
                                        <path d="M13.5508353,3.37457779 L0.650569758,3.37457779 C0.326480535,3.37457779 0.0641668763,3.12707411 0.0641668763,2.82184252 C0.0641668763,2.51661094 0.32641411,2.26910725 0.650569758,2.26910725 L13.5508353,2.26910725 C13.8749245,2.26910725 14.1372382,2.51661094 14.1372382,2.82184252 C14.1372382,3.12707411 13.8749245,3.37457779 13.5508353,3.37457779 Z" id="Path"></path>
                                    </g>
                                </g>
                            </g>
                        </g>
                    </g>
                </g>
            </g>
        </g>
    </g>
</svg>