<?xml version="1.0" encoding="utf-8"?>
<!-- Generator: Adobe Illustrator 15.1.0, SVG Export Plug-In . SVG Version: 6.00 Build 0)  -->
<!DOCTYPE svg PUBLIC "-//W3C//DTD SVG 1.1//EN" "http://www.w3.org/Graphics/SVG/1.1/DTD/svg11.dtd">
<svg version="1.1" id="Calque_1" xmlns="http://www.w3.org/2000/svg" xmlns:xlink="http://www.w3.org/1999/xlink" x="0px" y="0px"
	 width="300px" height="300px" viewBox="0 0 300 300" enable-background="new 0 0 300 300" xml:space="preserve">
<radialGradient id="SVGID_1_" cx="290.718" cy="-18.2993" r="263.9258" gradientTransform="matrix(1 0 0 -1 -113.3501 63.8496)" gradientUnits="userSpaceOnUse">
	<stop  offset="0" style="stop-color:#E16E31"/>
	<stop  offset="0.1034" style="stop-color:#E35B30"/>
	<stop  offset="0.3118" style="stop-color:#E92B2E"/>
	<stop  offset="0.35" style="stop-color:#EA212E"/>
	<stop  offset="1" style="stop-color:#A4121B"/>
</radialGradient>
<path fill="url(#SVGID_1_)" d="M266.593,190.047c1.803-8.648-3.604-10.63-6.485-10.991c-0.539,0-1.082-0.18-1.801-0.18
	c-3.243,0-5.945,1.081-7.569,2.522c-1.981,1.802-7.748,7.208-10.811,9.91s-6.305,5.045-9.908,7.387
	c-3.604,2.344-7.39,4.145-11.352,5.226c-3.966,1.082-8.29,1.621-12.976,1.621c-7.026,0-13.689-1.801-19.459-5.224
	c-5.944-3.604-10.629-8.83-14.232-15.676c-3.245-6.307-5.046-13.515-5.406-21.622c-0.181-2.702,1.983-4.325,4.326-4.325h71.531
	c9.729,0,16.935-1.44,21.98-3.964c4.324-2.342,6.849-7.387,7.026-16.396c0-9.91-2.524-19.459-7.567-29.009
	c-5.046-9.549-12.612-17.117-22.884-23.243c-10.089-5.946-22.34-9.009-36.755-9.009c-11.171,0-21.082,1.802-30.091,5.225
	c-9.01,3.604-16.577,8.648-22.702,15.135c-6.126,6.667-10.81,14.414-14.055,23.784c-3.243,9.189-4.863,19.279-4.863,30.271
	c0,23.243,6.485,41.262,19.458,54.593c12.974,13.334,30.992,20.002,54.954,20.002c10.089,0,19.098-1.262,26.846-3.785
	C248.035,217.434,263.891,203.381,266.593,190.047z M166.954,137.795c1.442-12.072,5.226-21.622,11.351-28.289
	c6.488-6.846,14.776-10.449,24.686-10.449c10.271,0,18.918,3.422,25.405,10.269c6.306,6.667,9.729,16.396,10.811,28.649
	c0.18,2.162-1.981,3.964-4.322,3.964h-63.785C168.938,141.939,166.594,140.138,166.954,137.795z"/>
<linearGradient id="SVGID_2_" gradientUnits="userSpaceOnUse" x1="258.6829" y1="24.793" x2="258.6829" y2="-200.792" gradientTransform="matrix(1 0 0 -1 -113.3501 63.8496)">
	<stop  offset="0" style="stop-color:#50C6E5"/>
	<stop  offset="0.0808" style="stop-color:#44B3D7"/>
	<stop  offset="0.2437" style="stop-color:#2482B2"/>
	<stop  offset="0.4066" style="stop-color:#004C89"/>
	<stop  offset="1" style="stop-color:#00113C"/>
</linearGradient>
<path fill="url(#SVGID_2_)" d="M258.124,151.85c0,62.343-50.449,112.792-112.791,112.792c-62.341,0-112.792-50.449-112.792-112.792
	S82.992,39.057,145.333,39.057C207.675,39.057,258.124,89.507,258.124,151.85z"/>
<linearGradient id="SVGID_3_" gradientUnits="userSpaceOnUse" x1="288.7854" y1="33.4976" x2="288.7854" y2="-117.3389" gradientTransform="matrix(0.9949 0.1011 0.1011 -0.9949 -137.1392 51.4127)">
	<stop  offset="0" style="stop-color:#8FD7F5"/>
	<stop  offset="1" style="stop-color:#003A6E"/>
</linearGradient>
<path fill="url(#SVGID_3_)" d="M46.956,188.065c-5.405-14.595-7.567-30.45-5.947-46.847c5.766-57.477,57.478-99.64,114.956-93.693
	c47.026,4.863,82.341,39.819,90.992,79.638c7.564,34.414-45.229,36.577-91.353,27.027
	C117.045,140.677,66.955,141.758,46.956,188.065z"/>
<path fill="none" d="M41.4,138.241c7.527-57.423,60.182-97.87,117.603-90.341c57.425,7.529,97.871,60.183,90.341,117.606
	c-7.527,57.424-60.182,97.867-117.604,90.342C74.317,248.315,33.87,195.664,41.4,138.241z"/>
<radialGradient id="SVGID_4_" cx="294.9202" cy="-29.7559" r="151.3482" gradientTransform="matrix(1 0 0 -1 -113.3501 63.8496)" gradientUnits="userSpaceOnUse">
	<stop  offset="0.2527" style="stop-color:#FFFFFF"/>
	<stop  offset="0.4487" style="stop-color:#F6F9FA"/>
	<stop  offset="0.7611" style="stop-color:#DFE9EE"/>
	<stop  offset="1" style="stop-color:#C9D9E2"/>
</radialGradient>
<path fill="url(#SVGID_4_)" d="M254.703,179.597c-1.442,0.541-2.704,1.082-3.786,1.982c-1.98,1.802-7.747,7.208-10.81,9.909
	c-3.063,2.702-6.308,5.046-9.911,7.388c-3.604,2.341-7.385,4.144-11.351,5.226c-3.964,1.082-8.288,1.62-12.974,1.62
	c-7.026,0-13.692-1.801-19.459-5.224c-5.944-3.604-10.63-8.829-14.233-15.678c-3.242-6.305-5.045-13.512-5.403-21.62
	c-0.183-2.703,1.979-4.324,4.322-4.324h71.532c5.945,0,11.171-0.541,15.315-1.621c0.178-1.802,0.178-3.785,0.178-5.586
	c0-25.946-8.646-49.73-23.423-68.828c-8.827-3.784-18.918-5.766-30.449-5.766c-11.171,0-21.082,1.802-30.091,5.225
	c-9.01,3.604-16.577,8.648-22.702,15.135c-6.126,6.667-10.81,14.414-14.055,23.784c-3.243,9.189-4.863,19.279-4.863,30.271
	c0,23.243,6.485,41.262,19.458,54.593c12.974,13.334,30.992,20.002,54.954,20.002c9.73,0,18.379-1.262,25.946-3.605
	C243.17,210.227,250.559,195.633,254.703,179.597z M166.954,137.795c1.442-12.072,5.226-21.622,11.351-28.289
	c6.488-6.846,14.776-10.449,24.686-10.449c10.271,0,18.918,3.422,25.405,10.269c6.306,6.667,9.729,16.396,10.811,28.649
	c0.18,2.162-1.981,3.964-4.322,3.964h-63.785C168.938,141.939,166.594,140.138,166.954,137.795z"/>
</svg>
